<?xml version="1.0" standalone="no"?>
<!DOCTYPE svg PUBLIC "-//W3C//DTD SVG 20010904//EN"
 "http://www.w3.org/TR/2001/REC-SVG-20010904/DTD/svg10.dtd">
<svg version="1.0" xmlns="http://www.w3.org/2000/svg"
 width="600.000000pt" height="286.000000pt" viewBox="0 0 600.000000 286.000000"
 preserveAspectRatio="xMidYMid meet">

<g transform="translate(0.000000,286.000000) scale(0.100000,-0.100000)"
fill="#000000" stroke="none">
<path d="M1171 2459 c-159 -31 -293 -108 -412 -237 -45 -48 -130 -182 -116
-182 3 0 24 11 48 24 77 43 196 77 289 83 l87 6 38 63 c41 71 143 171 217 212
26 15 48 30 48 35 0 10 -143 7 -199 -4z"/>
<path d="M1600 2463 c0 -5 23 -21 51 -38 74 -43 192 -161 222 -221 l26 -51 93
-6 c95 -5 213 -41 295 -89 18 -11 33 -17 33 -13 0 4 -14 34 -31 66 -86 160
-283 303 -475 344 -73 15 -214 20 -214 8z"/>
<path d="M1422 2419 c-61 -35 -182 -153 -224 -218 -15 -25 -28 -48 -28 -51 0
-4 26 -14 58 -24 71 -23 121 -48 194 -97 32 -22 60 -39 63 -39 3 0 26 15 52
34 62 44 156 91 213 107 25 7 46 14 48 15 10 7 -77 120 -140 180 -66 64 -150
124 -174 124 -5 0 -33 -14 -62 -31z"/>
<path d="M922 2060 c-91 -10 -190 -41 -268 -84 l-59 -33 1 -79 c1 -96 23 -185
69 -283 l35 -73 45 41 c54 50 149 113 208 137 l43 18 -4 105 c-3 75 1 126 12
174 15 64 14 89 -2 86 -4 -1 -40 -5 -80 -9z"/>
<path d="M1099 2033 c-13 -45 -23 -283 -12 -299 5 -8 43 -10 116 -6 l108 5 21
41 c11 22 38 64 59 93 l38 51 -32 25 c-72 54 -228 127 -273 127 -7 0 -18 -17
-25 -37z"/>
<path d="M1760 2040 c-83 -30 -178 -81 -205 -111 -13 -13 -9 -22 26 -69 23
-30 49 -71 59 -91 l19 -36 108 -5 c59 -3 110 -3 113 -1 3 3 5 55 5 116 -1 106
-18 227 -33 227 -4 0 -45 -14 -92 -30z"/>
<path d="M1954 2044 c15 -39 27 -192 21 -264 l-7 -75 66 -29 c63 -27 136 -77
202 -138 l31 -29 32 65 c43 88 71 204 71 296 l0 77 -57 30 c-90 47 -170 70
-272 78 -89 7 -94 6 -87 -11z"/>
<path d="M2760 1545 l0 -445 85 0 85 0 0 202 c0 111 2 199 5 196 3 -2 21 -83
40 -179 19 -96 37 -184 40 -196 5 -22 10 -23 90 -23 l85 0 -2 443 -3 442 -80
0 -80 0 -5 -205 -5 -205 -29 150 c-15 83 -33 175 -40 205 l-11 55 -88 3 -87 3
0 -446z"/>
<path d="M3277 1984 c-4 -4 -7 -205 -7 -446 l0 -438 185 0 186 0 -3 83 -3 82
-93 3 -93 3 3 102 3 102 83 3 83 3 -3 82 -3 82 -83 3 -83 3 3 82 3 82 88 3 88
3 -3 82 -3 82 -171 3 c-93 1 -173 -1 -177 -4z"/>
<path d="M4008 1983 c-44 -4 -48 -6 -53 -36 -10 -57 -35 -237 -35 -249 0 -6
-3 -9 -6 -6 -5 5 -43 245 -44 276 0 9 -24 12 -85 12 -47 0 -85 -3 -85 -7 0 -5
16 -99 36 -210 l35 -203 -45 -220 c-25 -121 -46 -225 -46 -231 0 -6 34 -9 87
-7 l87 3 27 153 c14 84 29 155 33 159 3 3 6 2 6 -3 0 -5 11 -74 25 -154 14
-80 25 -148 25 -152 0 -5 40 -8 88 -8 l89 0 -48 231 -47 231 38 207 c21 113
36 209 33 214 -4 7 -23 7 -115 0z"/>
<path d="M4177 1984 c-4 -4 -7 -42 -7 -85 l0 -78 53 -3 52 -3 3 -357 2 -358
85 0 85 0 2 358 3 357 53 3 53 3 -3 82 -3 82 -186 3 c-102 1 -188 -1 -192 -4z"/>
<path d="M4618 1984 c-5 -4 -8 -205 -8 -446 l0 -438 90 0 90 0 2 203 3 202 25
-3 c13 -1 28 -8 32 -15 4 -6 8 -96 8 -199 l0 -188 85 0 85 0 0 196 c0 201 -4
225 -42 253 -19 13 -19 13 1 28 48 33 66 118 51 239 -11 85 -35 134 -77 154
-31 15 -332 27 -345 14z m241 -178 c7 -9 11 -40 9 -78 l-3 -63 -37 -3 -38 -3
0 74 c0 40 3 77 7 80 11 12 50 7 62 -7z"/>
<path d="M5107 1984 c-4 -4 -7 -205 -7 -446 l0 -438 85 0 85 0 -2 443 -3 442
-75 3 c-42 1 -79 0 -83 -4z"/>
<path d="M5348 1984 c-5 -4 -8 -205 -8 -446 l0 -438 85 0 85 0 2 173 3 172 76
5 c90 7 120 23 151 83 18 34 23 63 26 152 4 120 -5 173 -41 226 -38 57 -81 71
-236 77 -75 2 -139 1 -143 -4z m227 -168 c15 -11 20 -30 23 -85 5 -87 -12
-121 -58 -121 l-30 0 0 103 c0 57 3 107 7 110 11 11 38 8 58 -7z"/>
<path d="M1420 1804 c-28 -42 -49 -81 -47 -87 1 -5 28 -16 57 -24 53 -14 76
-12 158 13 9 3 7 14 -9 46 -24 48 -86 128 -99 128 -5 0 -32 -34 -60 -76z"/>
<path d="M514 1825 c-126 -177 -156 -433 -77 -645 23 -63 82 -170 93 -170 3 0
6 30 8 67 4 97 28 190 71 276 l38 75 -28 53 c-45 86 -70 177 -77 279 l-7 95
-21 -30z"/>
<path d="M2427 1763 c-6 -97 -40 -217 -82 -289 l-25 -42 39 -83 c43 -91 71
-207 71 -290 0 -43 2 -50 14 -40 25 21 95 173 111 241 22 96 20 259 -6 350
-22 79 -66 179 -97 219 -19 23 -19 23 -25 -66z"/>
<path d="M1152 1670 c-29 -4 -56 -11 -59 -14 -9 -8 23 -86 58 -141 l30 -48 43
42 c32 31 47 57 59 99 9 31 14 58 12 61 -9 8 -93 9 -143 1z"/>
<path d="M1688 1673 c-22 -5 -22 -3 -3 -67 11 -37 28 -65 59 -95 l44 -43 25
43 c34 58 70 139 64 145 -6 6 -125 24 -152 23 -11 -1 -28 -3 -37 -6z"/>
<path d="M955 1589 c-79 -41 -132 -79 -178 -126 l-38 -40 46 -42 c97 -89 242
-164 253 -131 3 8 25 53 49 99 l43 83 -28 47 c-16 25 -38 67 -48 93 -11 27
-23 48 -29 48 -5 0 -37 -14 -70 -31z"/>
<path d="M1888 1522 l-47 -97 48 -97 48 -97 60 28 c97 46 223 140 223 166 0
21 -75 83 -169 139 -52 31 -99 56 -105 56 -6 -1 -32 -45 -58 -98z"/>
<path d="M1744 1347 c-40 -42 -81 -138 -67 -160 6 -9 178 -1 194 9 11 6 -15
76 -52 140 -17 30 -31 54 -32 53 -1 0 -21 -19 -43 -42z"/>
<path d="M1129 1296 c-23 -46 -39 -89 -35 -94 7 -11 168 -27 190 -19 25 10
-13 115 -58 160 -21 20 -42 37 -47 37 -4 0 -27 -38 -50 -84z"/>
<path d="M676 1298 c-47 -82 -86 -232 -86 -336 0 -40 3 -44 47 -72 26 -17 70
-39 99 -49 59 -23 200 -51 251 -51 32 0 35 2 29 23 -19 71 -28 161 -24 243 l5
92 -81 40 c-45 23 -108 65 -143 96 -33 31 -64 56 -67 56 -3 0 -16 -19 -30 -42z"/>
<path d="M2229 1314 c-33 -36 -137 -115 -153 -118 -8 -1 -20 -7 -27 -13 -8 -5
-27 -15 -44 -20 l-30 -10 0 -119 c0 -66 -7 -145 -14 -177 -8 -31 -11 -60 -7
-64 3 -4 56 1 116 10 107 16 172 37 258 85 l42 24 0 77 c0 44 -8 111 -19 153
-20 77 -74 198 -89 198 -5 0 -19 -12 -33 -26z"/>
<path d="M1428 1162 c-32 -8 -58 -17 -58 -21 0 -12 70 -125 92 -148 12 -12 25
-20 30 -16 12 7 108 153 108 163 0 4 -26 14 -57 22 -50 12 -66 12 -115 0z"/>
<path d="M1830 1128 c-25 -3 -74 -7 -111 -7 l-65 -1 -21 -42 c-11 -24 -37 -65
-58 -92 -20 -27 -33 -51 -28 -55 5 -3 29 -20 53 -37 25 -17 63 -40 85 -52 45
-22 166 -64 172 -58 2 2 10 34 18 72 15 69 18 207 6 254 -6 24 -9 25 -51 18z"/>
<path d="M1084 1106 c-9 -38 2 -243 15 -288 l12 -37 52 15 c71 21 185 78 230
115 l37 31 -28 33 c-16 17 -43 58 -61 89 -32 56 -33 56 -80 56 -27 0 -75 3
-109 6 -60 7 -61 6 -68 -20z"/>
<path d="M1435 832 c-64 -44 -179 -98 -227 -107 -21 -4 -38 -13 -38 -20 0 -18
80 -125 131 -174 24 -23 71 -60 104 -82 47 -32 66 -39 89 -35 38 8 140 82 198
144 45 47 108 137 108 153 0 3 -17 9 -37 13 -47 7 -173 67 -233 110 l-46 33
-49 -35z"/>
<path d="M650 798 c0 -27 100 -166 160 -221 124 -115 275 -176 455 -184 90 -3
106 -2 90 8 -93 57 -212 176 -269 267 l-26 42 -69 0 c-82 0 -200 29 -273 67
-29 15 -56 29 -60 31 -5 2 -8 -3 -8 -10z"/>
<path d="M2293 795 c-12 -9 -66 -32 -120 -51 -80 -29 -113 -36 -183 -37 l-84
-2 -30 -45 c-55 -83 -116 -149 -199 -211 l-82 -62 110 6 c255 13 472 146 585
359 17 32 30 58 28 58 -2 0 -13 -7 -25 -15z"/>
</g>
</svg>
